<?xml version="1.0" encoding="UTF-8" standalone="no"?>
<!DOCTYPE svg PUBLIC "-//W3C//DTD SVG 1.1//EN"
 "http://www.w3.org/Graphics/SVG/1.1/DTD/svg11.dtd">
<!-- Generated by graphviz version 2.44.0 (0)
 -->
<!-- Title: X Pages: 1 -->
<svg width="1571pt" height="1161pt"
 viewBox="0.00 0.00 1571.16 1160.84" xmlns="http://www.w3.org/2000/svg" xmlns:xlink="http://www.w3.org/1999/xlink">
<g id="graph0" class="graph" transform="scale(1 1) rotate(0) translate(4 1156.84)">
<title>X</title>
<polygon fill="white" stroke="transparent" points="-4,4 -4,-1156.84 1567.16,-1156.84 1567.16,4 -4,4"/>
<text text-anchor="middle" x="161" y="-1137.64" font-family="Courier" font-size="14.00">edsantiago/libpod: master @ b045c1737</text>
<!-- automation -->
<g id="node1" class="node">
<title>automation</title>
<polygon fill="none" stroke="blue" stroke-width="2" points="31.16,-911.5 31.16,-972.5 157.16,-972.5 157.16,-911.5 31.16,-911.5"/>
<text text-anchor="start" x="39.16" y="-957.3" font-family="Times-Roman" font-size="14.00" fill="blue">automation</text>
<polyline fill="none" stroke="blue" stroke-width="2" points="31.16,-949.5 157.16,-949.5 "/>
<text text-anchor="start" x="39.16" y="-934.3" font-family="Times-Roman" font-size="14.00" fill="blue">[SKIP: BRANCH]</text>
<text text-anchor="start" x="39.16" y="-919.3" font-family="Times-Roman" font-size="14.00" fill="blue">[SKIP: TAG]</text>
</g>
<!-- validate -->
<g id="node2" class="node">
<title>validate</title>
<polygon fill="none" stroke="orange" stroke-width="2" points="243.16,-875.5 243.16,-936.5 369.16,-936.5 369.16,-875.5 243.16,-875.5"/>
<text text-anchor="start" x="251.16" y="-921.3" font-family="Times-Roman" font-size="14.00" fill="orange">validate</text>
<polyline fill="none" stroke="orange" stroke-width="2" points="243.16,-913.5 369.16,-913.5 "/>
<text text-anchor="start" x="251.16" y="-898.3" font-family="Times-Roman" font-size="14.00" fill="orange">[SKIP: BRANCH]</text>
<text text-anchor="start" x="251.16" y="-883.3" font-family="Times-Roman" font-size="14.00" fill="orange">[SKIP: TAG]</text>
</g>
<!-- automation&#45;&gt;validate -->
<g id="edge1" class="edge">
<title>automation&#45;&gt;validate</title>
<path fill="none" stroke="blue" d="M157.31,-931.34C181.02,-927.28 208.24,-922.61 232.81,-918.4"/>
<polygon fill="blue" stroke="blue" points="233.54,-921.83 242.8,-916.69 232.35,-914.93 233.54,-921.83"/>
</g>
<!-- apiv2_test -->
<g id="node3" class="node">
<title>apiv2_test</title>
<polygon fill="none" stroke="red" stroke-width="2" points="486.66,-1048 486.66,-1094 581.66,-1094 581.66,-1048 486.66,-1048"/>
<text text-anchor="start" x="494.66" y="-1078.8" font-family="Times-Roman" font-size="14.00" fill="red">apiv2_test</text>
<polyline fill="none" stroke="red" stroke-width="2" points="486.66,-1071 581.66,-1071 "/>
<text text-anchor="start" x="494.66" y="-1055.8" font-family="Times-Roman" font-size="14.00" fill="red">[SKIP: TAG]</text>
</g>
<!-- validate&#45;&gt;apiv2_test -->
<g id="edge2" class="edge">
<title>validate&#45;&gt;apiv2_test</title>
<path fill="none" stroke="orange" d="M334.4,-936.63C357.68,-961.55 392.99,-996.49 428.66,-1021 443.55,-1031.24 460.87,-1040.45 477.07,-1048.09"/>
<polygon fill="orange" stroke="orange" points="475.9,-1051.41 486.45,-1052.41 478.83,-1045.05 475.9,-1051.41"/>
</g>
<!-- compose_test -->
<g id="node4" class="node">
<title>compose_test</title>
<polygon fill="none" stroke="#ff3030" stroke-width="2" points="471.16,-950.5 471.16,-1011.5 597.16,-1011.5 597.16,-950.5 471.16,-950.5"/>
<text text-anchor="start" x="479.16" y="-996.3" font-family="Times-Roman" font-size="14.00" fill="#ff3030">compose_test</text>
<polyline fill="none" stroke="#ff3030" stroke-width="2" points="471.16,-988.5 597.16,-988.5 "/>
<text text-anchor="start" x="479.16" y="-973.3" font-family="Times-Roman" font-size="14.00" fill="#ff3030">[SKIP: CI:DOCS]</text>
<text text-anchor="start" x="479.16" y="-958.3" font-family="Times-Roman" font-size="14.00" fill="#ff3030">[SKIP: TAG]</text>
</g>
<!-- validate&#45;&gt;compose_test -->
<g id="edge3" class="edge">
<title>validate&#45;&gt;compose_test</title>
<path fill="none" stroke="orange" d="M369.21,-926.59C397.62,-936.02 431.47,-947.25 461.01,-957.06"/>
<polygon fill="orange" stroke="orange" points="460.26,-960.49 470.85,-960.32 462.46,-953.85 460.26,-960.49"/>
</g>
<!-- unit_test -->
<g id="node5" class="node">
<title>unit_test</title>
<polygon fill="none" stroke="#8b2500" stroke-width="2" points="428.66,-767.5 428.66,-896.5 639.66,-896.5 639.66,-767.5 428.66,-767.5"/>
<text text-anchor="start" x="436.66" y="-881.3" font-family="Times-Roman" font-size="14.00" fill="#8b2500">unit_test</text>
<polyline fill="none" stroke="#8b2500" stroke-width="2" points="428.66,-873.5 639.66,-873.5 "/>
<text text-anchor="start" x="436.66" y="-858.3" font-family="Times-Roman" font-size="14.00" fill="#8b2500">&#45; Unit tests on fedora&#45;33</text>
<text text-anchor="start" x="436.66" y="-843.3" font-family="Times-Roman" font-size="14.00" fill="#8b2500">&#45; Unit tests on fedora&#45;32</text>
<text text-anchor="start" x="436.66" y="-828.3" font-family="Times-Roman" font-size="14.00" fill="#8b2500">&#45; Unit tests on ubuntu&#45;2010</text>
<text text-anchor="start" x="436.66" y="-813.3" font-family="Times-Roman" font-size="14.00" fill="#8b2500">&#45; Unit tests on ubuntu&#45;2004</text>
<polyline fill="none" stroke="#8b2500" stroke-width="2" points="428.66,-805.5 639.66,-805.5 "/>
<text text-anchor="start" x="436.66" y="-790.3" font-family="Times-Roman" font-size="14.00" fill="#8b2500">[SKIP: CI:DOCS]</text>
<text text-anchor="start" x="436.66" y="-775.3" font-family="Times-Roman" font-size="14.00" fill="#8b2500">[SKIP: TAG]</text>
</g>
<!-- validate&#45;&gt;unit_test -->
<g id="edge4" class="edge">
<title>validate&#45;&gt;unit_test</title>
<path fill="none" stroke="orange" d="M369.21,-885.68C384.51,-880.67 401.37,-875.15 418.3,-869.61"/>
<polygon fill="orange" stroke="orange" points="419.84,-872.79 428.26,-866.35 417.66,-866.13 419.84,-872.79"/>
</g>
<!-- success -->
<g id="node6" class="node">
<title>success</title>
<ellipse fill="none" stroke="darkgoldenrod" stroke-width="2" cx="1376.16" cy="-401" rx="46.29" ry="18"/>
<text text-anchor="middle" x="1376.16" y="-397.3" font-family="Times-Roman" font-size="14.00" fill="darkgoldenrod">success</text>
</g>
<!-- apiv2_test&#45;&gt;success -->
<g id="edge5" class="edge">
<title>apiv2_test&#45;&gt;success</title>
<path fill="none" stroke="red" d="M581.89,-1084.47C714.12,-1119.42 1093.86,-1197.38 1287.66,-1003 1369.48,-920.93 1375.32,-537.15 1375.32,-429.27"/>
<polygon fill="red" stroke="red" points="1378.82,-429.15 1375.3,-419.16 1371.82,-429.16 1378.82,-429.15"/>
</g>
<!-- compose_test&#45;&gt;success -->
<g id="edge8" class="edge">
<title>compose_test&#45;&gt;success</title>
<path fill="none" stroke="#ff3030" d="M597.41,-1007.43C623.67,-1017.23 654.9,-1027.13 684.16,-1032 817.82,-1054.24 1196.92,-1045.63 1287.66,-945 1357.27,-867.8 1371.75,-529.61 1374.54,-429.2"/>
<polygon fill="#ff3030" stroke="#ff3030" points="1378.04,-429.29 1374.8,-419.2 1371.04,-429.1 1378.04,-429.29"/>
</g>
<!-- container_integration_test -->
<g id="node9" class="node">
<title>container_integration_test</title>
<polygon fill="none" stroke="darkturquoise" stroke-width="2" points="684.16,-908 684.16,-1022 964.16,-1022 964.16,-908 684.16,-908"/>
<text text-anchor="start" x="692.16" y="-1006.8" font-family="Times-Roman" font-size="14.00" fill="darkturquoise">container_integration_test</text>
<polyline fill="none" stroke="darkturquoise" stroke-width="2" points="684.16,-999 964.16,-999 "/>
<text text-anchor="start" x="692.16" y="-983.8" font-family="Times-Roman" font-size="14.00" fill="darkturquoise">&#45; int podman fedora&#45;33 root container</text>
<text text-anchor="start" x="692.16" y="-968.8" font-family="Times-Roman" font-size="14.00" fill="darkturquoise">&#45; int podman fedora&#45;32 root container</text>
<polyline fill="none" stroke="darkturquoise" stroke-width="2" points="684.16,-961 964.16,-961 "/>
<text text-anchor="start" x="692.16" y="-945.8" font-family="Times-Roman" font-size="14.00" fill="darkturquoise">[SKIP: CI:DOCS]</text>
<text text-anchor="start" x="692.16" y="-930.8" font-family="Times-Roman" font-size="14.00" fill="darkturquoise">[SKIP: BRANCH]</text>
<text text-anchor="start" x="692.16" y="-915.8" font-family="Times-Roman" font-size="14.00" fill="darkturquoise">[SKIP: TAG]</text>
</g>
<!-- unit_test&#45;&gt;container_integration_test -->
<g id="edge9" class="edge">
<title>unit_test&#45;&gt;container_integration_test</title>
<path fill="none" stroke="#8b2500" d="M639.95,-880.39C656.23,-887.91 673.24,-895.77 690.05,-903.53"/>
<polygon fill="#8b2500" stroke="#8b2500" points="688.82,-906.82 699.36,-907.83 691.75,-900.46 688.82,-906.82"/>
</g>
<!-- rootless_integration_test -->
<g id="node10" class="node">
<title>rootless_integration_test</title>
<polygon fill="none" stroke="deeppink" stroke-width="2" points="688.16,-775 688.16,-889 960.16,-889 960.16,-775 688.16,-775"/>
<text text-anchor="start" x="696.16" y="-873.8" font-family="Times-Roman" font-size="14.00" fill="deeppink">rootless_integration_test</text>
<polyline fill="none" stroke="deeppink" stroke-width="2" points="688.16,-866 960.16,-866 "/>
<text text-anchor="start" x="696.16" y="-850.8" font-family="Times-Roman" font-size="14.00" fill="deeppink">&#45; int podman fedora&#45;33 rootless host</text>
<text text-anchor="start" x="696.16" y="-835.8" font-family="Times-Roman" font-size="14.00" fill="deeppink">&#45; int podman fedora&#45;32 rootless host</text>
<polyline fill="none" stroke="deeppink" stroke-width="2" points="688.16,-828 960.16,-828 "/>
<text text-anchor="start" x="696.16" y="-812.8" font-family="Times-Roman" font-size="14.00" fill="deeppink">[SKIP: CI:DOCS]</text>
<text text-anchor="start" x="696.16" y="-797.8" font-family="Times-Roman" font-size="14.00" fill="deeppink">[SKIP: BRANCH]</text>
<text text-anchor="start" x="696.16" y="-782.8" font-family="Times-Roman" font-size="14.00" fill="deeppink">[SKIP: TAG]</text>
</g>
<!-- unit_test&#45;&gt;rootless_integration_test -->
<g id="edge10" class="edge">
<title>unit_test&#45;&gt;rootless_integration_test</title>
<path fill="none" stroke="#8b2500" d="M639.95,-832C652.26,-832 664.98,-832 677.72,-832"/>
<polygon fill="#8b2500" stroke="#8b2500" points="677.93,-835.5 687.93,-832 677.93,-828.5 677.93,-835.5"/>
</g>
<!-- local_integration_test -->
<g id="node11" class="node">
<title>local_integration_test</title>
<polygon fill="none" stroke="coral" stroke-width="2" points="690.16,-612 690.16,-756 958.16,-756 958.16,-612 690.16,-612"/>
<text text-anchor="start" x="698.16" y="-740.8" font-family="Times-Roman" font-size="14.00" fill="coral">local_integration_test</text>
<polyline fill="none" stroke="coral" stroke-width="2" points="690.16,-733 958.16,-733 "/>
<text text-anchor="start" x="698.16" y="-717.8" font-family="Times-Roman" font-size="14.00" fill="coral">&#45; int podman fedora&#45;33 root host</text>
<text text-anchor="start" x="698.16" y="-702.8" font-family="Times-Roman" font-size="14.00" fill="coral">&#45; int podman fedora&#45;32 root host</text>
<text text-anchor="start" x="698.16" y="-687.8" font-family="Times-Roman" font-size="14.00" fill="coral">&#45; int podman ubuntu&#45;2010 root host</text>
<text text-anchor="start" x="698.16" y="-672.8" font-family="Times-Roman" font-size="14.00" fill="coral">&#45; int podman ubuntu&#45;2004 root host</text>
<polyline fill="none" stroke="coral" stroke-width="2" points="690.16,-665 958.16,-665 "/>
<text text-anchor="start" x="698.16" y="-649.8" font-family="Times-Roman" font-size="14.00" fill="coral">[SKIP: CI:DOCS]</text>
<text text-anchor="start" x="698.16" y="-634.8" font-family="Times-Roman" font-size="14.00" fill="coral">[SKIP: BRANCH]</text>
<text text-anchor="start" x="698.16" y="-619.8" font-family="Times-Roman" font-size="14.00" fill="coral">[SKIP: TAG]</text>
</g>
<!-- unit_test&#45;&gt;local_integration_test -->
<g id="edge11" class="edge">
<title>unit_test&#45;&gt;local_integration_test</title>
<path fill="none" stroke="#8b2500" d="M639.95,-778.15C653.27,-771.3 667.08,-764.21 680.87,-757.12"/>
<polygon fill="#8b2500" stroke="#8b2500" points="682.63,-760.15 689.93,-752.47 679.43,-753.92 682.63,-760.15"/>
</g>
<!-- remote_integration_test -->
<g id="node12" class="node">
<title>remote_integration_test</title>
<polygon fill="none" stroke="#eed5b7" stroke-width="2" points="694.16,-449 694.16,-593 954.16,-593 954.16,-449 694.16,-449"/>
<text text-anchor="start" x="702.16" y="-577.8" font-family="Times-Roman" font-size="14.00" fill="#eed5b7">remote_integration_test</text>
<polyline fill="none" stroke="#eed5b7" stroke-width="2" points="694.16,-570 954.16,-570 "/>
<text text-anchor="start" x="702.16" y="-554.8" font-family="Times-Roman" font-size="14.00" fill="#eed5b7">&#45; int remote fedora&#45;33 root host</text>
<text text-anchor="start" x="702.16" y="-539.8" font-family="Times-Roman" font-size="14.00" fill="#eed5b7">&#45; int remote fedora&#45;32 root host</text>
<text text-anchor="start" x="702.16" y="-524.8" font-family="Times-Roman" font-size="14.00" fill="#eed5b7">&#45; int remote ubuntu&#45;2010 root host</text>
<text text-anchor="start" x="702.16" y="-509.8" font-family="Times-Roman" font-size="14.00" fill="#eed5b7">&#45; int remote ubuntu&#45;2004 root host</text>
<polyline fill="none" stroke="#eed5b7" stroke-width="2" points="694.16,-502 954.16,-502 "/>
<text text-anchor="start" x="702.16" y="-486.8" font-family="Times-Roman" font-size="14.00" fill="#eed5b7">[SKIP: CI:DOCS]</text>
<text text-anchor="start" x="702.16" y="-471.8" font-family="Times-Roman" font-size="14.00" fill="#eed5b7">[SKIP: BRANCH]</text>
<text text-anchor="start" x="702.16" y="-456.8" font-family="Times-Roman" font-size="14.00" fill="#eed5b7">[SKIP: TAG]</text>
</g>
<!-- unit_test&#45;&gt;remote_integration_test -->
<g id="edge12" class="edge">
<title>unit_test&#45;&gt;remote_integration_test</title>
<path fill="none" stroke="#8b2500" d="M566.34,-767.4C592.64,-717.78 633.98,-649.86 684.16,-602 684.84,-601.35 685.53,-600.7 686.23,-600.05"/>
<polygon fill="#8b2500" stroke="#8b2500" points="688.76,-602.49 693.92,-593.23 684.11,-597.25 688.76,-602.49"/>
</g>
<!-- release -->
<g id="node7" class="node">
<title>release</title>
<polygon fill="none" stroke="darkgreen" stroke-width="2" points="1463.66,-411 1463.66,-457 1560.66,-457 1560.66,-411 1463.66,-411"/>
<text text-anchor="start" x="1471.66" y="-441.8" font-family="Times-Roman" font-size="14.00" fill="darkgreen">release</text>
<polyline fill="none" stroke="darkgreen" stroke-width="2" points="1463.66,-434 1560.66,-434 "/>
<text text-anchor="middle" x="1512.16" y="-418.8" font-family="Times-Roman" font-size="14.00" fill="darkgreen">[only if tag]</text>
</g>
<!-- success&#45;&gt;release -->
<g id="edge6" class="edge">
<title>success&#45;&gt;release</title>
<path fill="none" stroke="darkgoldenrod" d="M1415.56,-410.46C1427.27,-413.34 1440.43,-416.58 1453.14,-419.71"/>
<polygon fill="darkgoldenrod" stroke="darkgoldenrod" points="1452.66,-423.2 1463.21,-422.19 1454.33,-416.4 1452.66,-423.2"/>
</g>
<!-- release_test -->
<g id="node8" class="node">
<title>release_test</title>
<polygon fill="none" stroke="#43cd80" stroke-width="2" points="1462.66,-346 1462.66,-392 1561.66,-392 1561.66,-346 1462.66,-346"/>
<text text-anchor="start" x="1470.66" y="-376.8" font-family="Times-Roman" font-size="14.00" fill="#43cd80">release_test</text>
<polyline fill="none" stroke="#43cd80" stroke-width="2" points="1462.66,-369 1561.66,-369 "/>
<text text-anchor="middle" x="1512.16" y="-353.8" font-family="Times-Roman" font-size="14.00" fill="#43cd80">[only if PR]</text>
</g>
<!-- success&#45;&gt;release_test -->
<g id="edge7" class="edge">
<title>success&#45;&gt;release_test</title>
<path fill="none" stroke="darkgoldenrod" d="M1415.92,-391.74C1427.38,-389.01 1440.2,-385.95 1452.62,-382.98"/>
<polygon fill="darkgoldenrod" stroke="darkgoldenrod" points="1453.55,-386.35 1462.47,-380.63 1451.93,-379.55 1453.55,-386.35"/>
</g>
<!-- container_integration_test&#45;&gt;success -->
<g id="edge13" class="edge">
<title>container_integration_test&#45;&gt;success</title>
<path fill="none" stroke="darkturquoise" d="M964.4,-979.55C1067.54,-982.15 1204.12,-967.05 1287.66,-884 1352.62,-819.41 1370.18,-522.67 1374.14,-429.24"/>
<polygon fill="darkturquoise" stroke="darkturquoise" points="1377.64,-429.26 1374.55,-419.13 1370.65,-428.98 1377.64,-429.26"/>
</g>
<!-- rootless_system_test -->
<g id="node13" class="node">
<title>rootless_system_test</title>
<polygon fill="none" stroke="#009acd" stroke-width="2" points="1010.66,-775.5 1010.66,-874.5 1287.66,-874.5 1287.66,-775.5 1010.66,-775.5"/>
<text text-anchor="start" x="1018.66" y="-859.3" font-family="Times-Roman" font-size="14.00" fill="#009acd">rootless_system_test</text>
<polyline fill="none" stroke="#009acd" stroke-width="2" points="1010.66,-851.5 1287.66,-851.5 "/>
<text text-anchor="start" x="1018.66" y="-836.3" font-family="Times-Roman" font-size="14.00" fill="#009acd">&#45; sys podman fedora&#45;33 rootless host</text>
<text text-anchor="start" x="1018.66" y="-821.3" font-family="Times-Roman" font-size="14.00" fill="#009acd">&#45; sys podman fedora&#45;32 rootless host</text>
<polyline fill="none" stroke="#009acd" stroke-width="2" points="1010.66,-813.5 1287.66,-813.5 "/>
<text text-anchor="start" x="1018.66" y="-798.3" font-family="Times-Roman" font-size="14.00" fill="#009acd">[SKIP: CI:DOCS]</text>
<text text-anchor="start" x="1018.66" y="-783.3" font-family="Times-Roman" font-size="14.00" fill="#009acd">[SKIP: TAG]</text>
</g>
<!-- rootless_integration_test&#45;&gt;rootless_system_test -->
<g id="edge14" class="edge">
<title>rootless_integration_test&#45;&gt;rootless_system_test</title>
<path fill="none" stroke="deeppink" d="M960.27,-829.07C973.49,-828.79 986.96,-828.49 1000.3,-828.2"/>
<polygon fill="deeppink" stroke="deeppink" points="1000.55,-831.7 1010.47,-827.98 1000.4,-824.7 1000.55,-831.7"/>
</g>
<!-- local_system_test -->
<g id="node14" class="node">
<title>local_system_test</title>
<polygon fill="none" stroke="dodgerblue" stroke-width="2" points="1012.66,-610.5 1012.66,-739.5 1285.66,-739.5 1285.66,-610.5 1012.66,-610.5"/>
<text text-anchor="start" x="1020.66" y="-724.3" font-family="Times-Roman" font-size="14.00" fill="dodgerblue">local_system_test</text>
<polyline fill="none" stroke="dodgerblue" stroke-width="2" points="1012.66,-716.5 1285.66,-716.5 "/>
<text text-anchor="start" x="1020.66" y="-701.3" font-family="Times-Roman" font-size="14.00" fill="dodgerblue">&#45; sys podman fedora&#45;33 root host</text>
<text text-anchor="start" x="1020.66" y="-686.3" font-family="Times-Roman" font-size="14.00" fill="dodgerblue">&#45; sys podman fedora&#45;32 root host</text>
<text text-anchor="start" x="1020.66" y="-671.3" font-family="Times-Roman" font-size="14.00" fill="dodgerblue">&#45; sys podman ubuntu&#45;2010 root host</text>
<text text-anchor="start" x="1020.66" y="-656.3" font-family="Times-Roman" font-size="14.00" fill="dodgerblue">&#45; sys podman ubuntu&#45;2004 root host</text>
<polyline fill="none" stroke="dodgerblue" stroke-width="2" points="1012.66,-648.5 1285.66,-648.5 "/>
<text text-anchor="start" x="1020.66" y="-633.3" font-family="Times-Roman" font-size="14.00" fill="dodgerblue">[SKIP: CI:DOCS]</text>
<text text-anchor="start" x="1020.66" y="-618.3" font-family="Times-Roman" font-size="14.00" fill="dodgerblue">[SKIP: TAG]</text>
</g>
<!-- local_integration_test&#45;&gt;local_system_test -->
<g id="edge16" class="edge">
<title>local_integration_test&#45;&gt;local_system_test</title>
<path fill="none" stroke="coral" d="M958.4,-680.29C972.94,-679.88 987.8,-679.47 1002.48,-679.06"/>
<polygon fill="coral" stroke="coral" points="1002.72,-682.55 1012.61,-678.78 1002.52,-675.56 1002.72,-682.55"/>
</g>
<!-- remote_system_test -->
<g id="node15" class="node">
<title>remote_system_test</title>
<polygon fill="none" stroke="indigo" stroke-width="2" points="1016.66,-452.5 1016.66,-581.5 1281.66,-581.5 1281.66,-452.5 1016.66,-452.5"/>
<text text-anchor="start" x="1024.66" y="-566.3" font-family="Times-Roman" font-size="14.00" fill="indigo">remote_system_test</text>
<polyline fill="none" stroke="indigo" stroke-width="2" points="1016.66,-558.5 1281.66,-558.5 "/>
<text text-anchor="start" x="1024.66" y="-543.3" font-family="Times-Roman" font-size="14.00" fill="indigo">&#45; sys remote fedora&#45;33 root host</text>
<text text-anchor="start" x="1024.66" y="-528.3" font-family="Times-Roman" font-size="14.00" fill="indigo">&#45; sys remote fedora&#45;32 root host</text>
<text text-anchor="start" x="1024.66" y="-513.3" font-family="Times-Roman" font-size="14.00" fill="indigo">&#45; sys remote ubuntu&#45;2010 root host</text>
<text text-anchor="start" x="1024.66" y="-498.3" font-family="Times-Roman" font-size="14.00" fill="indigo">&#45; sys remote ubuntu&#45;2004 root host</text>
<polyline fill="none" stroke="indigo" stroke-width="2" points="1016.66,-490.5 1281.66,-490.5 "/>
<text text-anchor="start" x="1024.66" y="-475.3" font-family="Times-Roman" font-size="14.00" fill="indigo">[SKIP: CI:DOCS]</text>
<text text-anchor="start" x="1024.66" y="-460.3" font-family="Times-Roman" font-size="14.00" fill="indigo">[SKIP: TAG]</text>
</g>
<!-- remote_integration_test&#45;&gt;remote_system_test -->
<g id="edge18" class="edge">
<title>remote_integration_test&#45;&gt;remote_system_test</title>
<path fill="none" stroke="#eed5b7" d="M954.21,-519.4C971.32,-519.19 988.94,-518.97 1006.26,-518.76"/>
<polygon fill="#eed5b7" stroke="#eed5b7" points="1006.45,-522.26 1016.41,-518.63 1006.37,-515.26 1006.45,-522.26"/>
</g>
<!-- rootless_system_test&#45;&gt;success -->
<g id="edge15" class="edge">
<title>rootless_system_test&#45;&gt;success</title>
<path fill="none" stroke="#009acd" d="M1260.82,-775.3C1270.86,-767.57 1280.09,-758.83 1287.66,-749 1363.82,-650.07 1374.36,-492.77 1375.35,-429.11"/>
<polygon fill="#009acd" stroke="#009acd" points="1378.85,-429.06 1375.43,-419.03 1371.85,-429 1378.85,-429.06"/>
</g>
<!-- local_system_test&#45;&gt;success -->
<g id="edge17" class="edge">
<title>local_system_test&#45;&gt;success</title>
<path fill="none" stroke="dodgerblue" d="M1267.76,-610.25C1274.89,-604.21 1281.62,-597.79 1287.66,-591 1330.97,-542.3 1356.56,-468.51 1367.99,-428.74"/>
<polygon fill="dodgerblue" stroke="dodgerblue" points="1371.41,-429.5 1370.71,-418.93 1364.66,-427.63 1371.41,-429.5"/>
</g>
<!-- remote_system_test&#45;&gt;success -->
<g id="edge19" class="edge">
<title>remote_system_test&#45;&gt;success</title>
<path fill="none" stroke="indigo" d="M1275.49,-452.39C1298.47,-440.53 1320.74,-429.06 1338.37,-419.97"/>
<polygon fill="indigo" stroke="indigo" points="1340.38,-422.87 1347.67,-415.17 1337.17,-416.65 1340.38,-422.87"/>
</g>
<!-- build -->
<g id="node16" class="node">
<title>build</title>
<polygon fill="none" stroke="#bf3eff" stroke-width="2" points="3.16,-251.5 3.16,-342.5 185.16,-342.5 185.16,-251.5 3.16,-251.5"/>
<text text-anchor="start" x="11.16" y="-327.3" font-family="Times-Roman" font-size="14.00" fill="#bf3eff">build</text>
<polyline fill="none" stroke="#bf3eff" stroke-width="2" points="3.16,-319.5 185.16,-319.5 "/>
<text text-anchor="start" x="11.16" y="-304.3" font-family="Times-Roman" font-size="14.00" fill="#bf3eff">&#45; Build for fedora&#45;33</text>
<text text-anchor="start" x="11.16" y="-289.3" font-family="Times-Roman" font-size="14.00" fill="#bf3eff">&#45; Build for fedora&#45;32</text>
<text text-anchor="start" x="11.16" y="-274.3" font-family="Times-Roman" font-size="14.00" fill="#bf3eff">&#45; Build for ubuntu&#45;2010</text>
<text text-anchor="start" x="11.16" y="-259.3" font-family="Times-Roman" font-size="14.00" fill="#bf3eff">&#45; Build for ubuntu&#45;2004</text>
</g>
<!-- build&#45;&gt;validate -->
<g id="edge20" class="edge">
<title>build&#45;&gt;validate</title>
<path fill="none" stroke="#bf3eff" d="M110.94,-342.77C150.58,-457.72 253.8,-757.06 291.29,-865.79"/>
<polygon fill="#bf3eff" stroke="#bf3eff" points="288.04,-867.09 294.61,-875.4 294.66,-864.81 288.04,-867.09"/>
</g>
<!-- bindings -->
<g id="node17" class="node">
<title>bindings</title>
<polygon fill="none" stroke="#ee799f" stroke-width="2" points="471.16,-410 471.16,-486 597.16,-486 597.16,-410 471.16,-410"/>
<text text-anchor="start" x="479.16" y="-470.8" font-family="Times-Roman" font-size="14.00" fill="#ee799f">bindings</text>
<polyline fill="none" stroke="#ee799f" stroke-width="2" points="471.16,-463 597.16,-463 "/>
<text text-anchor="start" x="479.16" y="-447.8" font-family="Times-Roman" font-size="14.00" fill="#ee799f">[SKIP: CI:DOCS]</text>
<text text-anchor="start" x="479.16" y="-432.8" font-family="Times-Roman" font-size="14.00" fill="#ee799f">[SKIP: BRANCH]</text>
<text text-anchor="start" x="479.16" y="-417.8" font-family="Times-Roman" font-size="14.00" fill="#ee799f">[SKIP: TAG]</text>
</g>
<!-- build&#45;&gt;bindings -->
<g id="edge21" class="edge">
<title>build&#45;&gt;bindings</title>
<path fill="none" stroke="#bf3eff" d="M185.41,-339.18C199.28,-345.12 213.51,-350.92 227.16,-356 306,-385.33 398.8,-412.2 461.37,-429.22"/>
<polygon fill="#bf3eff" stroke="#bf3eff" points="460.57,-432.63 471.14,-431.87 462.4,-425.88 460.57,-432.63"/>
</g>
<!-- consistency -->
<g id="node18" class="node">
<title>consistency</title>
<polygon fill="none" stroke="#473c8b" stroke-width="2" points="485.16,-345 485.16,-391 583.16,-391 583.16,-345 485.16,-345"/>
<text text-anchor="start" x="493.16" y="-375.8" font-family="Times-Roman" font-size="14.00" fill="#473c8b">consistency</text>
<polyline fill="none" stroke="#473c8b" stroke-width="2" points="485.16,-368 583.16,-368 "/>
<text text-anchor="start" x="493.16" y="-352.8" font-family="Times-Roman" font-size="14.00" fill="#473c8b">[SKIP: TAG]</text>
</g>
<!-- build&#45;&gt;consistency -->
<g id="edge22" class="edge">
<title>build&#45;&gt;consistency</title>
<path fill="none" stroke="#bf3eff" d="M185.37,-321.1C199.3,-324.37 213.57,-327.47 227.16,-330 312.6,-345.92 412.75,-356.93 474.58,-362.86"/>
<polygon fill="#bf3eff" stroke="#bf3eff" points="474.63,-366.38 484.91,-363.84 475.29,-359.41 474.63,-366.38"/>
</g>
<!-- docker&#45;py_test -->
<g id="node19" class="node">
<title>docker&#45;py_test</title>
<polygon fill="none" stroke="#8b8878" stroke-width="2" points="761.16,-292.5 761.16,-353.5 887.16,-353.5 887.16,-292.5 761.16,-292.5"/>
<text text-anchor="start" x="769.16" y="-338.3" font-family="Times-Roman" font-size="14.00" fill="#8b8878">docker&#45;py_test</text>
<polyline fill="none" stroke="#8b8878" stroke-width="2" points="761.16,-330.5 887.16,-330.5 "/>
<text text-anchor="start" x="769.16" y="-315.3" font-family="Times-Roman" font-size="14.00" fill="#8b8878">[SKIP: CI:DOCS]</text>
<text text-anchor="start" x="769.16" y="-300.3" font-family="Times-Roman" font-size="14.00" fill="#8b8878">[SKIP: TAG]</text>
</g>
<!-- build&#45;&gt;docker&#45;py_test -->
<g id="edge23" class="edge">
<title>build&#45;&gt;docker&#45;py_test</title>
<path fill="none" stroke="#bf3eff" d="M185.52,-300.23C331.74,-305.45 617.3,-315.65 750.94,-320.42"/>
<polygon fill="#bf3eff" stroke="#bf3eff" points="750.95,-323.92 761.07,-320.78 751.2,-316.93 750.95,-323.92"/>
</g>
<!-- osx_alt_build -->
<g id="node20" class="node">
<title>osx_alt_build</title>
<ellipse fill="none" stroke="#00688b" stroke-width="2" cx="1149.16" cy="-279" rx="68.79" ry="18"/>
<text text-anchor="middle" x="1149.16" y="-275.3" font-family="Times-Roman" font-size="14.00" fill="#00688b">osx_alt_build</text>
</g>
<!-- build&#45;&gt;osx_alt_build -->
<g id="edge24" class="edge">
<title>build&#45;&gt;osx_alt_build</title>
<path fill="none" stroke="#bf3eff" d="M185.21,-294.44C300.74,-291.24 507.35,-285.86 684.16,-283 819.83,-280.8 977.84,-279.77 1070.06,-279.31"/>
<polygon fill="#bf3eff" stroke="#bf3eff" points="1070.16,-282.81 1080.14,-279.26 1070.13,-275.81 1070.16,-282.81"/>
</g>
<!-- static_alt_build -->
<g id="node21" class="node">
<title>static_alt_build</title>
<polygon fill="none" stroke="#eecfa1" stroke-width="2" points="243.16,-203 243.16,-249 369.16,-249 369.16,-203 243.16,-203"/>
<text text-anchor="start" x="251.16" y="-233.8" font-family="Times-Roman" font-size="14.00" fill="#eecfa1">static_alt_build</text>
<polyline fill="none" stroke="#eecfa1" stroke-width="2" points="243.16,-226 369.16,-226 "/>
<text text-anchor="start" x="251.16" y="-210.8" font-family="Times-Roman" font-size="14.00" fill="#eecfa1">[SKIP: CI:DOCS]</text>
</g>
<!-- build&#45;&gt;static_alt_build -->
<g id="edge25" class="edge">
<title>build&#45;&gt;static_alt_build</title>
<path fill="none" stroke="#bf3eff" d="M185.44,-266.48C201.55,-261.03 218.13,-255.42 233.62,-250.19"/>
<polygon fill="#bf3eff" stroke="#bf3eff" points="234.77,-253.49 243.12,-246.98 232.52,-246.86 234.77,-253.49"/>
</g>
<!-- swagger -->
<g id="node22" class="node">
<title>swagger</title>
<ellipse fill="none" stroke="#836fff" stroke-width="2" cx="306.16" cy="-166" rx="49.29" ry="18"/>
<text text-anchor="middle" x="306.16" y="-162.3" font-family="Times-Roman" font-size="14.00" fill="#836fff">swagger</text>
</g>
<!-- build&#45;&gt;swagger -->
<g id="edge26" class="edge">
<title>build&#45;&gt;swagger</title>
<path fill="none" stroke="#bf3eff" d="M144.7,-251.49C168.35,-231.52 197.85,-209.02 227.16,-193 236.31,-188 246.55,-183.66 256.54,-180.01"/>
<polygon fill="#bf3eff" stroke="#bf3eff" points="257.69,-183.32 265.98,-176.72 255.39,-176.7 257.69,-183.32"/>
</g>
<!-- alt_build -->
<g id="node23" class="node">
<title>alt_build</title>
<polygon fill="none" stroke="#8b8b00" stroke-width="2" points="227.16,-0.5 227.16,-129.5 385.16,-129.5 385.16,-0.5 227.16,-0.5"/>
<text text-anchor="start" x="235.16" y="-114.3" font-family="Times-Roman" font-size="14.00" fill="#8b8b00">alt_build</text>
<polyline fill="none" stroke="#8b8b00" stroke-width="2" points="227.16,-106.5 385.16,-106.5 "/>
<text text-anchor="start" x="235.16" y="-91.3" font-family="Times-Roman" font-size="14.00" fill="#8b8b00">&#45; Build Each Commit</text>
<text text-anchor="start" x="235.16" y="-76.3" font-family="Times-Roman" font-size="14.00" fill="#8b8b00">&#45; Windows Cross</text>
<text text-anchor="start" x="235.16" y="-61.3" font-family="Times-Roman" font-size="14.00" fill="#8b8b00">&#45; Build Without CGO</text>
<text text-anchor="start" x="235.16" y="-46.3" font-family="Times-Roman" font-size="14.00" fill="#8b8b00">&#45; Test build RPM</text>
<text text-anchor="start" x="235.16" y="-31.3" font-family="Times-Roman" font-size="14.00" fill="#8b8b00">&#45; Alt Arch. Cross</text>
<polyline fill="none" stroke="#8b8b00" stroke-width="2" points="227.16,-23.5 385.16,-23.5 "/>
<text text-anchor="start" x="235.16" y="-8.3" font-family="Times-Roman" font-size="14.00" fill="#8b8b00">[SKIP: CI:DOCS]</text>
</g>
<!-- build&#45;&gt;alt_build -->
<g id="edge27" class="edge">
<title>build&#45;&gt;alt_build</title>
<path fill="none" stroke="#bf3eff" d="M131.08,-251.2C156.9,-219 193.03,-175.35 227.16,-139 227.8,-138.32 228.45,-137.63 229.1,-136.94"/>
<polygon fill="#bf3eff" stroke="#bf3eff" points="231.82,-139.17 236.24,-129.54 226.78,-134.31 231.82,-139.17"/>
</g>
<!-- bindings&#45;&gt;success -->
<g id="edge28" class="edge">
<title>bindings&#45;&gt;success</title>
<path fill="none" stroke="#ee799f" d="M597.5,-444.15C624.19,-442.53 655.7,-440.64 684.16,-439 952.34,-423.57 1019.45,-421 1287.66,-406 1298.13,-405.41 1309.32,-404.78 1320.06,-404.17"/>
<polygon fill="#ee799f" stroke="#ee799f" points="1320.41,-407.65 1330.2,-403.59 1320.01,-400.67 1320.41,-407.65"/>
</g>
<!-- consistency&#45;&gt;success -->
<g id="edge29" class="edge">
<title>consistency&#45;&gt;success</title>
<path fill="none" stroke="#473c8b" d="M583.34,-369.89C729.11,-375.62 1164.9,-392.74 1319.78,-398.82"/>
<polygon fill="#473c8b" stroke="#473c8b" points="1319.88,-402.33 1330.01,-399.23 1320.15,-395.34 1319.88,-402.33"/>
</g>
<!-- docker&#45;py_test&#45;&gt;success -->
<g id="edge30" class="edge">
<title>docker&#45;py_test&#45;&gt;success</title>
<path fill="none" stroke="#8b8878" d="M887.34,-323.87C976.93,-326.29 1147.02,-335.24 1287.66,-368 1303.87,-371.78 1321.14,-377.82 1336.01,-383.71"/>
<polygon fill="#8b8878" stroke="#8b8878" points="1334.82,-387.01 1345.4,-387.54 1337.46,-380.52 1334.82,-387.01"/>
</g>
<!-- osx_alt_build&#45;&gt;success -->
<g id="edge31" class="edge">
<title>osx_alt_build&#45;&gt;success</title>
<path fill="none" stroke="#00688b" d="M1202.2,-290.68C1228.84,-297.96 1261.16,-308.86 1287.66,-324 1312.34,-338.1 1336.29,-359.91 1352.87,-376.73"/>
<polygon fill="#00688b" stroke="#00688b" points="1350.48,-379.29 1359.94,-384.06 1355.51,-374.43 1350.48,-379.29"/>
</g>
<!-- static_alt_build&#45;&gt;success -->
<g id="edge32" class="edge">
<title>static_alt_build&#45;&gt;success</title>
<path fill="none" stroke="#eecfa1" d="M369.19,-224.19C572.31,-218.73 1208.92,-205.53 1287.66,-252 1332.69,-278.57 1356.96,-338.03 1367.87,-373.28"/>
<polygon fill="#eecfa1" stroke="#eecfa1" points="1364.54,-374.35 1370.72,-382.95 1371.25,-372.37 1364.54,-374.35"/>
</g>
<!-- swagger&#45;&gt;success -->
<g id="edge33" class="edge">
<title>swagger&#45;&gt;success</title>
<path fill="none" stroke="#836fff" d="M355.57,-165.71C542.37,-164.95 1209.74,-165.95 1287.66,-218 1341,-253.63 1362.73,-331.2 1370.83,-372.99"/>
<polygon fill="#836fff" stroke="#836fff" points="1367.42,-373.82 1372.65,-383.04 1374.31,-372.58 1367.42,-373.82"/>
</g>
<!-- alt_build&#45;&gt;success -->
<g id="edge34" class="edge">
<title>alt_build&#45;&gt;success</title>
<path fill="none" stroke="#8b8b00" d="M385.28,-71.63C611.27,-91.11 1251.93,-148.48 1287.66,-176 1350.32,-224.27 1368.15,-323.65 1373.19,-372.55"/>
<polygon fill="#8b8b00" stroke="#8b8b00" points="1369.72,-373.1 1374.13,-382.74 1376.7,-372.46 1369.72,-373.1"/>
</g>
<!-- ext_svc_check -->
<g id="node24" class="node">
<title>ext_svc_check</title>
<polygon fill="none" stroke="brown" stroke-width="2" points="36.16,-846 36.16,-892 152.16,-892 152.16,-846 36.16,-846"/>
<text text-anchor="start" x="44.16" y="-876.8" font-family="Times-Roman" font-size="14.00" fill="brown">ext_svc_check</text>
<polyline fill="none" stroke="brown" stroke-width="2" points="36.16,-869 152.16,-869 "/>
<text text-anchor="start" x="44.16" y="-853.8" font-family="Times-Roman" font-size="14.00" fill="brown">[SKIP: TAG]</text>
</g>
<!-- ext_svc_check&#45;&gt;validate -->
<g id="edge35" class="edge">
<title>ext_svc_check&#45;&gt;validate</title>
<path fill="none" stroke="brown" d="M152.26,-879.06C177.14,-883.44 206.59,-888.63 232.96,-893.28"/>
<polygon fill="brown" stroke="brown" points="232.45,-896.74 242.9,-895.03 233.66,-889.85 232.45,-896.74"/>
</g>
<!-- meta -->
<g id="node25" class="node">
<title>meta</title>
<ellipse fill="none" stroke="chartreuse" stroke-width="2" cx="1149.16" cy="-104" rx="33.6" ry="18"/>
<text text-anchor="middle" x="1149.16" y="-100.3" font-family="Times-Roman" font-size="14.00" fill="chartreuse">meta</text>
</g>
<!-- meta&#45;&gt;success -->
<g id="edge36" class="edge">
<title>meta&#45;&gt;success</title>
<path fill="none" stroke="chartreuse" d="M1182.9,-103C1213.68,-103.85 1259.16,-109.96 1287.66,-136 1356.76,-199.13 1371.4,-317.9 1374.42,-372.37"/>
<polygon fill="chartreuse" stroke="chartreuse" points="1370.94,-372.85 1374.89,-382.68 1377.93,-372.53 1370.94,-372.85"/>
</g>
</g>
</svg>
